<svg xmlns="http://www.w3.org/2000/svg" viewBox="0 0 900 724" width="900" height="724" font-family="-apple-system,BlinkMacSystemFont,'PingFang SC','Helvetica Neue',sans-serif">
<rect width="900" height="724" fill="#ffffff"/>
<text x="56" y="36" font-size="20" font-weight="600" fill="#111">deepseek-flash 温度曲线（thinking: disabled）</text>
<text x="56" y="60" font-size="13" fill="#666">model=deepseek-flash · thinking=disabled · 每档 n=50 次 · 同题同 prompt · 点为实测值</text>
<rect x="56" y="92" width="366" height="250" fill="#fcfcfd" stroke="#e5e7eb"/>
<line x1="56" y1="110.0" x2="422" y2="110.0" stroke="#eef0f3"/>
<text x="48" y="114.0" font-size="11" fill="#9ca3af" text-anchor="end">17</text>
<line x1="56" y1="163.5" x2="422" y2="163.5" stroke="#eef0f3"/>
<text x="48" y="167.5" font-size="11" fill="#9ca3af" text-anchor="end">12</text>
<line x1="56" y1="217.0" x2="422" y2="217.0" stroke="#eef0f3"/>
<text x="48" y="221.0" font-size="11" fill="#9ca3af" text-anchor="end">8</text>
<line x1="56" y1="270.5" x2="422" y2="270.5" stroke="#eef0f3"/>
<text x="48" y="274.5" font-size="11" fill="#9ca3af" text-anchor="end">4</text>
<line x1="56" y1="324.0" x2="422" y2="324.0" stroke="#eef0f3"/>
<text x="48" y="328.0" font-size="11" fill="#9ca3af" text-anchor="end">0</text>
<text x="56" y="76" font-size="13" font-weight="600" fill="#111">不同回答数 (种)</text>
<line x1="86.0" y1="342" x2="86.0" y2="347" stroke="#cbd5e1"/>
<text x="86.0" y="361" font-size="11" fill="#6b7280" text-anchor="middle">0</text>
<line x1="162.5" y1="342" x2="162.5" y2="347" stroke="#cbd5e1"/>
<text x="162.5" y="361" font-size="11" fill="#6b7280" text-anchor="middle">0.5</text>
<line x1="239.0" y1="342" x2="239.0" y2="347" stroke="#cbd5e1"/>
<text x="239.0" y="361" font-size="11" fill="#6b7280" text-anchor="middle">1</text>
<line x1="315.5" y1="342" x2="315.5" y2="347" stroke="#cbd5e1"/>
<text x="315.5" y="361" font-size="11" fill="#6b7280" text-anchor="middle">1.5</text>
<line x1="392.0" y1="342" x2="392.0" y2="347" stroke="#cbd5e1"/>
<text x="392.0" y="361" font-size="11" fill="#6b7280" text-anchor="middle">2</text>
<text x="239" y="380" font-size="13" fill="#374151" text-anchor="middle">temperature</text>
<path d="M86.0,311.0 L162.5,311.0 L239.0,272.2 L315.5,233.3 L392.0,142.6" fill="none" stroke="#2563eb" stroke-width="2.2" stroke-linejoin="round"/>
<circle cx="86.0" cy="311.0" r="4.6" fill="#fff" stroke="#1d4ed8" stroke-width="2.2"/>
<text x="86.0" y="300.0" font-size="11.5" fill="#1e3a8a" text-anchor="middle" font-weight="600">1</text>
<circle cx="162.5" cy="311.0" r="4.6" fill="#fff" stroke="#1d4ed8" stroke-width="2.2"/>
<text x="162.5" y="330.0" font-size="11.5" fill="#1e3a8a" text-anchor="middle" font-weight="600">1</text>
<circle cx="239.0" cy="272.2" r="4.6" fill="#fff" stroke="#1d4ed8" stroke-width="2.2"/>
<text x="239.0" y="261.2" font-size="11.5" fill="#1e3a8a" text-anchor="middle" font-weight="600">4</text>
<circle cx="315.5" cy="233.3" r="4.6" fill="#fff" stroke="#1d4ed8" stroke-width="2.2"/>
<text x="315.5" y="222.3" font-size="11.5" fill="#1e3a8a" text-anchor="middle" font-weight="600">7</text>
<circle cx="392.0" cy="142.6" r="4.6" fill="#fff" stroke="#1d4ed8" stroke-width="2.2"/>
<text x="392.0" y="131.6" font-size="11.5" fill="#1e3a8a" text-anchor="middle" font-weight="600">14</text>
<rect x="478" y="92" width="366" height="250" fill="#fcfcfd" stroke="#e5e7eb"/>
<line x1="478" y1="110.0" x2="844" y2="110.0" stroke="#eef0f3"/>
<text x="470" y="114.0" font-size="11" fill="#9ca3af" text-anchor="end">3.22</text>
<line x1="478" y1="163.5" x2="844" y2="163.5" stroke="#eef0f3"/>
<text x="470" y="167.5" font-size="11" fill="#9ca3af" text-anchor="end">2.41</text>
<line x1="478" y1="217.0" x2="844" y2="217.0" stroke="#eef0f3"/>
<text x="470" y="221.0" font-size="11" fill="#9ca3af" text-anchor="end">1.61</text>
<line x1="478" y1="270.5" x2="844" y2="270.5" stroke="#eef0f3"/>
<text x="470" y="274.5" font-size="11" fill="#9ca3af" text-anchor="end">0.80</text>
<line x1="478" y1="324.0" x2="844" y2="324.0" stroke="#eef0f3"/>
<text x="470" y="328.0" font-size="11" fill="#9ca3af" text-anchor="end">0.00</text>
<text x="478" y="76" font-size="13" font-weight="600" fill="#111">Shannon 熵 (bit)</text>
<line x1="508.0" y1="342" x2="508.0" y2="347" stroke="#cbd5e1"/>
<text x="508.0" y="361" font-size="11" fill="#6b7280" text-anchor="middle">0</text>
<line x1="584.5" y1="342" x2="584.5" y2="347" stroke="#cbd5e1"/>
<text x="584.5" y="361" font-size="11" fill="#6b7280" text-anchor="middle">0.5</text>
<line x1="661.0" y1="342" x2="661.0" y2="347" stroke="#cbd5e1"/>
<text x="661.0" y="361" font-size="11" fill="#6b7280" text-anchor="middle">1</text>
<line x1="737.5" y1="342" x2="737.5" y2="347" stroke="#cbd5e1"/>
<text x="737.5" y="361" font-size="11" fill="#6b7280" text-anchor="middle">1.5</text>
<line x1="814.0" y1="342" x2="814.0" y2="347" stroke="#cbd5e1"/>
<text x="814.0" y="361" font-size="11" fill="#6b7280" text-anchor="middle">2</text>
<text x="661" y="380" font-size="13" fill="#374151" text-anchor="middle">temperature</text>
<path d="M508.0,324.0 L584.5,324.0 L661.0,283.7 L737.5,239.8 L814.0,142.6" fill="none" stroke="#2563eb" stroke-width="2.2" stroke-linejoin="round"/>
<circle cx="508.0" cy="324.0" r="4.6" fill="#fff" stroke="#1d4ed8" stroke-width="2.2"/>
<text x="508.0" y="313.0" font-size="11.5" fill="#1e3a8a" text-anchor="middle" font-weight="600">0.00</text>
<circle cx="584.5" cy="324.0" r="4.6" fill="#fff" stroke="#1d4ed8" stroke-width="2.2"/>
<text x="584.5" y="343.0" font-size="11.5" fill="#1e3a8a" text-anchor="middle" font-weight="600">0.00</text>
<circle cx="661.0" cy="283.7" r="4.6" fill="#fff" stroke="#1d4ed8" stroke-width="2.2"/>
<text x="661.0" y="272.7" font-size="11.5" fill="#1e3a8a" text-anchor="middle" font-weight="600">0.61</text>
<circle cx="737.5" cy="239.8" r="4.6" fill="#fff" stroke="#1d4ed8" stroke-width="2.2"/>
<text x="737.5" y="228.8" font-size="11.5" fill="#1e3a8a" text-anchor="middle" font-weight="600">1.27</text>
<circle cx="814.0" cy="142.6" r="4.6" fill="#fff" stroke="#1d4ed8" stroke-width="2.2"/>
<text x="814.0" y="131.6" font-size="11.5" fill="#1e3a8a" text-anchor="middle" font-weight="600">2.73</text>
<rect x="56" y="434" width="366" height="250" fill="#fcfcfd" stroke="#e5e7eb"/>
<line x1="56" y1="452.0" x2="422" y2="452.0" stroke="#eef0f3"/>
<text x="48" y="456.0" font-size="11" fill="#9ca3af" text-anchor="end">100%</text>
<line x1="56" y1="505.5" x2="422" y2="505.5" stroke="#eef0f3"/>
<text x="48" y="509.5" font-size="11" fill="#9ca3af" text-anchor="end">75%</text>
<line x1="56" y1="559.0" x2="422" y2="559.0" stroke="#eef0f3"/>
<text x="48" y="563.0" font-size="11" fill="#9ca3af" text-anchor="end">50%</text>
<line x1="56" y1="612.5" x2="422" y2="612.5" stroke="#eef0f3"/>
<text x="48" y="616.5" font-size="11" fill="#9ca3af" text-anchor="end">25%</text>
<line x1="56" y1="666.0" x2="422" y2="666.0" stroke="#eef0f3"/>
<text x="48" y="670.0" font-size="11" fill="#9ca3af" text-anchor="end">0%</text>
<text x="56" y="418" font-size="13" font-weight="600" fill="#111">众数占比 (%)</text>
<line x1="86.0" y1="684" x2="86.0" y2="689" stroke="#cbd5e1"/>
<text x="86.0" y="703" font-size="11" fill="#6b7280" text-anchor="middle">0</text>
<line x1="162.5" y1="684" x2="162.5" y2="689" stroke="#cbd5e1"/>
<text x="162.5" y="703" font-size="11" fill="#6b7280" text-anchor="middle">0.5</text>
<line x1="239.0" y1="684" x2="239.0" y2="689" stroke="#cbd5e1"/>
<text x="239.0" y="703" font-size="11" fill="#6b7280" text-anchor="middle">1</text>
<line x1="315.5" y1="684" x2="315.5" y2="689" stroke="#cbd5e1"/>
<text x="315.5" y="703" font-size="11" fill="#6b7280" text-anchor="middle">1.5</text>
<line x1="392.0" y1="684" x2="392.0" y2="689" stroke="#cbd5e1"/>
<text x="392.0" y="703" font-size="11" fill="#6b7280" text-anchor="middle">2</text>
<text x="239" y="722" font-size="13" fill="#374151" text-anchor="middle">temperature</text>
<path d="M86.0,452.0 L162.5,452.0 L239.0,473.4 L315.5,499.1 L392.0,563.3" fill="none" stroke="#2563eb" stroke-width="2.2" stroke-linejoin="round"/>
<circle cx="86.0" cy="452.0" r="4.6" fill="#fff" stroke="#1d4ed8" stroke-width="2.2"/>
<text x="86.0" y="441.0" font-size="11.5" fill="#1e3a8a" text-anchor="middle" font-weight="600">100%</text>
<circle cx="162.5" cy="452.0" r="4.6" fill="#fff" stroke="#1d4ed8" stroke-width="2.2"/>
<text x="162.5" y="471.0" font-size="11.5" fill="#1e3a8a" text-anchor="middle" font-weight="600">100%</text>
<circle cx="239.0" cy="473.4" r="4.6" fill="#fff" stroke="#1d4ed8" stroke-width="2.2"/>
<text x="239.0" y="462.4" font-size="11.5" fill="#1e3a8a" text-anchor="middle" font-weight="600">90%</text>
<circle cx="315.5" cy="499.1" r="4.6" fill="#fff" stroke="#1d4ed8" stroke-width="2.2"/>
<text x="315.5" y="488.1" font-size="11.5" fill="#1e3a8a" text-anchor="middle" font-weight="600">78%</text>
<circle cx="392.0" cy="563.3" r="4.6" fill="#fff" stroke="#1d4ed8" stroke-width="2.2"/>
<text x="392.0" y="552.3" font-size="11.5" fill="#1e3a8a" text-anchor="middle" font-weight="600">48%</text>
<rect x="478" y="434" width="366" height="250" fill="#fcfcfd" stroke="#e5e7eb"/>
<line x1="478" y1="452.0" x2="844" y2="452.0" stroke="#eef0f3"/>
<text x="470" y="456.0" font-size="11" fill="#9ca3af" text-anchor="end">100.0%</text>
<line x1="478" y1="505.5" x2="844" y2="505.5" stroke="#eef0f3"/>
<text x="470" y="509.5" font-size="11" fill="#9ca3af" text-anchor="end">75.0%</text>
<line x1="478" y1="559.0" x2="844" y2="559.0" stroke="#eef0f3"/>
<text x="470" y="563.0" font-size="11" fill="#9ca3af" text-anchor="end">50.0%</text>
<line x1="478" y1="612.5" x2="844" y2="612.5" stroke="#eef0f3"/>
<text x="470" y="616.5" font-size="11" fill="#9ca3af" text-anchor="end">25.0%</text>
<line x1="478" y1="666.0" x2="844" y2="666.0" stroke="#eef0f3"/>
<text x="470" y="670.0" font-size="11" fill="#9ca3af" text-anchor="end">0.0%</text>
<text x="478" y="418" font-size="13" font-weight="600" fill="#111">逐字重复对占比 (%)</text>
<line x1="508.0" y1="684" x2="508.0" y2="689" stroke="#cbd5e1"/>
<text x="508.0" y="703" font-size="11" fill="#6b7280" text-anchor="middle">0</text>
<line x1="584.5" y1="684" x2="584.5" y2="689" stroke="#cbd5e1"/>
<text x="584.5" y="703" font-size="11" fill="#6b7280" text-anchor="middle">0.5</text>
<line x1="661.0" y1="684" x2="661.0" y2="689" stroke="#cbd5e1"/>
<text x="661.0" y="703" font-size="11" fill="#6b7280" text-anchor="middle">1</text>
<line x1="737.5" y1="684" x2="737.5" y2="689" stroke="#cbd5e1"/>
<text x="737.5" y="703" font-size="11" fill="#6b7280" text-anchor="middle">1.5</text>
<line x1="814.0" y1="684" x2="814.0" y2="689" stroke="#cbd5e1"/>
<text x="814.0" y="703" font-size="11" fill="#6b7280" text-anchor="middle">2</text>
<text x="661" y="722" font-size="13" fill="#374151" text-anchor="middle">temperature</text>
<path d="M508.0,452.0 L584.5,452.0 L661.0,492.5 L737.5,535.0 L814.0,612.5" fill="none" stroke="#2563eb" stroke-width="2.2" stroke-linejoin="round"/>
<circle cx="508.0" cy="452.0" r="4.6" fill="#fff" stroke="#1d4ed8" stroke-width="2.2"/>
<text x="508.0" y="441.0" font-size="11.5" fill="#1e3a8a" text-anchor="middle" font-weight="600">100.0%</text>
<circle cx="584.5" cy="452.0" r="4.6" fill="#fff" stroke="#1d4ed8" stroke-width="2.2"/>
<text x="584.5" y="471.0" font-size="11.5" fill="#1e3a8a" text-anchor="middle" font-weight="600">100.0%</text>
<circle cx="661.0" cy="492.5" r="4.6" fill="#fff" stroke="#1d4ed8" stroke-width="2.2"/>
<text x="661.0" y="481.5" font-size="11.5" fill="#1e3a8a" text-anchor="middle" font-weight="600">81.1%</text>
<circle cx="737.5" cy="535.0" r="4.6" fill="#fff" stroke="#1d4ed8" stroke-width="2.2"/>
<text x="737.5" y="524.0" font-size="11.5" fill="#1e3a8a" text-anchor="middle" font-weight="600">61.2%</text>
<circle cx="814.0" cy="612.5" r="4.6" fill="#fff" stroke="#1d4ed8" stroke-width="2.2"/>
<text x="814.0" y="601.5" font-size="11.5" fill="#1e3a8a" text-anchor="middle" font-weight="600">25.0%</text>
<text x="56" y="710" font-size="11.5" fill="#9ca3af">数据来源: results-nothink.json, results-nothink-0515.json · 生成: plot-curve.mjs</text>
</svg>